<svg id="图层_1" data-name="图层 1" xmlns="http://www.w3.org/2000/svg" viewBox="0 0 2000 2000"><defs><style>.cls-1{fill:#fff;}.cls-2{fill:#343535;}.cls-3{fill:#a2bde3;stroke:#7fa5d7;stroke-width:103.81px;}.cls-3,.cls-4,.cls-6{stroke-linejoin:round;}.cls-4{fill:#d6696c;stroke:#cb3334;stroke-width:88.55px;}.cls-5,.cls-6,.cls-7,.cls-8{font-size:1296px;font-family:FandolSong-Bold-GBpc-EUC-H, FandolSong;font-weight:700;}.cls-5,.cls-7{fill:#231815;}.cls-5,.cls-8{stroke:#231815;stroke-width:40px;}.cls-5{stroke-miterlimit:10;}.cls-6,.cls-8{fill:none;stroke-linecap:round;}.cls-6{stroke:#fff;stroke-width:300px;}</style></defs><title>info</title><circle class="cls-1" cx="1000" cy="1000" r="807.44"/><path class="cls-2" d="M1713.95,972.1a822.33,822.33,0,0,1-17.18,166.49l3.15-15a807.57,807.57,0,0,1-112.79,273,820.5,820.5,0,0,1-48.55,66.93l9.6-11.9A815.79,815.79,0,0,1,1357,1623.85q-31.31,20.23-64.38,37.51l14.83-7.75a809.91,809.91,0,0,1-224.1,77.54l19-3.52a824.27,824.27,0,0,1-178.78,13.23l22,.77a821.74,821.74,0,0,1-141.23-17.57l24,5.15a815.32,815.32,0,0,1-120.58-36.07l24.87,9.59a818.31,818.31,0,0,1-108.17-51.45l23.16,13.2a822.62,822.62,0,0,1-105.24-71.58l19.16,15.33a824.42,824.42,0,0,1-102.33-97.9l14.54,16.58a819.12,819.12,0,0,1-102-145.84L381,1398a810,810,0,0,1-81.61-222.17l3.38,16.39a818.26,818.26,0,0,1-11.27-258.82q4.22-36.25,11.71-72l-3.15,15a807.57,807.57,0,0,1,112.79-273,820.5,820.5,0,0,1,48.55-66.93l-9.6,11.9A815.79,815.79,0,0,1,643,376.15q31.31-20.23,64.38-37.51l-14.83,7.75a809.91,809.91,0,0,1,224.1-77.54l-19,3.52a824.27,824.27,0,0,1,178.78-13.23l-22-.77a821.74,821.74,0,0,1,141.23,17.57l-24-5.15a815.32,815.32,0,0,1,120.58,36.07l-24.87-9.59a818.31,818.31,0,0,1,108.17,51.45l-23.16-13.2a822.62,822.62,0,0,1,105.24,71.58l-19.16-15.33a824.42,824.42,0,0,1,102.33,97.9l-14.54-16.58a819.12,819.12,0,0,1,102,145.84L1619,602a810,810,0,0,1,81.61,222.17l-3.38-16.39a822.59,822.59,0,0,1,16.74,164.34c0,18.76,14.61,37.76,27.19,49.9,17.53,16.92,43.68,31.85,67.2,38.13,20.08,5.35,45,10.65,65,2.4,15.18-6.27,27.61-16.46,27.58-34.61a869.17,869.17,0,0,0-42.72-266.05c-27.11-83.46-68.17-163.38-119-234.85-55.93-78.6-124.28-146.4-200.61-205-78.36-60.2-166.78-105.34-259.2-139.55-46.27-17.13-93.79-29-142.09-38.83A810.08,810.08,0,0,0,1009.18,128c-50.38-2.1-100.45-1.86-150.59,4a931.45,931.45,0,0,0-140.9,27.38c-84.13,23.35-164.78,60.84-237.93,108.4A812.84,812.84,0,0,0,297,430.61C241.7,497.44,195.37,570.34,162.36,650.78c-33.57,81.79-54,169.89-60.85,258-7.08,91.13,2.15,182.06,23.67,270.77,21,86.38,56.94,167.84,102.95,243.76,45.7,75.41,104.1,144.52,170,203,72.91,64.66,155.14,119.21,243.91,159.59,90.48,41.16,187.34,69.28,286.12,81.08s197.18,6.92,294.51-12.23c86.92-17.11,168.93-49.31,246.42-91.9a811.62,811.62,0,0,0,194.41-149.21c59.51-62,110.75-132.86,149.27-209.78,39.44-78.77,64.92-163.68,78.47-250.65a821.38,821.38,0,0,0,9.66-125.29c0-18.73-14.65-37.8-27.19-49.9-17.53-16.92-43.68-31.85-67.2-38.13-20.08-5.35-45-10.65-65-2.4C1726.32,943.76,1714,953.94,1713.95,972.1Z"/><path class="cls-3" d="M1076.09,1076.66c296.35-18.57,364.15-184.51,377.45-485.94,10.26,312.4,20.37,474.92,454.84,459.37-395.47,61.21-391.53,357-401,617.95C1471.42,1415.43,1405.54,1096.21,1076.09,1076.66Z"/><path class="cls-4" d="M929.46,1413c252.31-22.34,306.48-165.33,311.21-422.67,15.6,266.18,27.79,404.54,397.94,381.75-335.89,60.88-326,313-328.43,535.76C1274,1693.24,1210.83,1422.48,929.46,1413Z"/><text class="cls-5" transform="translate(820.51 1370.66)">i</text><text class="cls-6" transform="translate(820.51 1370.66)">i</text><text class="cls-7" transform="translate(820.51 1370.66)">i</text><text class="cls-8" transform="translate(820.51 1370.66)">i</text></svg>